<?xml version="1.0" encoding="iso-8859-1"?>
<!-- Generator: Adobe Illustrator 18.1.1, SVG Export Plug-In . SVG Version: 6.00 Build 0)  -->
<svg version="1.1" xmlns="http://www.w3.org/2000/svg" xmlns:xlink="http://www.w3.org/1999/xlink" x="0px" y="0px"
	 viewBox="0 0 3000 3000" style="enable-background:new 0 0 3000 3000;" xml:space="preserve">
<g id="fundo" style="display:none;">
	<rect x="-28.947" style="display:inline;fill:#181919;stroke:#000000;stroke-miterlimit:10;" width="3028.947" height="3000"/>
</g>
<g id="ac_l&#xE1;pis" style="display:none;">
	<path style="display:inline;fill:none;stroke:#FFFFFF;stroke-width:10;stroke-miterlimit:10;" d="M500.687,1788.52
		c193.837-300.811,338.521-631.464,537.391-928.972c85.527-127.948,183.811-256.6,204.035-409.167
		c80.231,188.784,128.8,390.979,143.071,595.607c4.105,58.862,5.486,118.501,20.926,175.45
		c14.372,53.011,40.492,102.019,59.104,153.694c44.41,123.302,45.941,261.145,106.425,377.409"/>
	<path style="display:inline;fill:none;stroke:#FFFFFF;stroke-width:10;stroke-miterlimit:10;" d="M2660.02,451.891
		c-137.525-28.548-279.465-48.321-418.182-26.283c-138.717,22.038-275.172,90.879-352.328,208.247
		c-21.814,33.183-38.485,69.424-55.068,105.508c-35.417,77.062-71.015,154.627-92.244,236.737
		c-37.254,144.089-28.74,295.537-19.966,444.105c2.101,35.581,4.657,72.709,22.855,103.356
		c22.285,37.529,63.618,58.42,100.302,82.07c59.959,38.656,111.871,88.985,172.852,126.007
		c193.402,117.417,470.206,69.729,613.167-105.637"/>
	<path style="display:inline;fill:none;stroke:#FFFFFF;stroke-width:10;stroke-miterlimit:10;" d="M581.757,985.579
		c175.724,16.898,310.264,176.062,484.658,203.463c62.534,9.825,126.764,1.858,188.056-13.965
		c113.193-29.223,219.301-85.512,306.972-162.845"/>
</g>
<g id="c">
	<circle style="fill:none;stroke:#FFF200;stroke-width:20;stroke-miterlimit:10;" cx="2177.413" cy="1180.003" r="784.687"/>
	<circle style="fill:none;stroke:#00AEEF;stroke-width:20;stroke-miterlimit:10;" cx="2298.227" cy="1180.003" r="663.873"/>
	<circle style="fill:none;stroke:#ED1C24;stroke-width:20;stroke-miterlimit:10;" cx="2408.727" cy="1201.103" r="553.373"/>
</g>
<g id="a">
	<polygon style="fill:none;stroke:#FFF200;stroke-width:20;stroke-miterlimit:10;" points="762.103,395.316 1376.007,1871.564 
		98.69,1871.564 	"/>
	<polygon style="fill:none;stroke:#ED1C24;stroke-width:20;stroke-miterlimit:10;" points="756.881,797.238 1241.282,1962.073 
		233.414,1962.073 	"/>
	
		<line style="fill:none;stroke:#00AEEF;stroke-width:20;stroke-miterlimit:10;" x1="186.842" y1="1317.789" x2="1277.789" y2="1317.789"/>
</g>
<g id="r&#xE9;guas" style="display:none;">
</g>
</svg>
